<svg xmlns="http://www.w3.org/2000/svg" width="1500" height="500">
    <defs>
        <linearGradient id="a" x1="0%" y1="100%" y2="0%">
            <stop offset="0%" stop-color="#FF9A1F"/>
            <stop offset="65.59%" stop-color="#49BEAD"/>
            <stop offset="100%" stop-color="#35687C"/>
        </linearGradient>
    </defs>
    <g fill="none" fill-rule="evenodd">
        <path fill="url(#a)" d="M-12-24h1534v550H-12z"/>
        <path fill="#FFF" fill-rule="nonzero" d="M1394.053 315.909c14.594.841 25.743 13.363 24.902 27.967-.84 14.605-13.353 25.762-27.947 24.921-108.51-6.256-227.818 3.663-346.087 28.82-69.403 14.763-136.328 34.208-199.184 57.702-13.695 5.118-28.942-1.842-34.057-15.546-5.114-13.705 1.84-28.963 15.535-34.082 65.319-24.414 134.756-44.589 206.7-59.892 122.77-26.115 246.788-36.425 360.138-29.89zm119.287-181.256c14.537 1.55 25.062 14.555 23.508 29.047-1.555 14.493-14.6 24.986-29.136 23.437-152.66-16.273-326.925-5.408-499.974 31.263-124.577 26.399-242.671 64.651-348.36 112.253-13.324 6-29.005.098-35.024-13.185-6.019-13.283-.098-28.916 13.226-34.917 109.194-49.18 230.906-88.604 359.15-115.78 178.337-37.792 358.187-49.005 516.61-32.118zm120.186-183.365c14.45 2.204 24.374 15.687 22.167 30.115-2.208 14.427-15.712 24.336-30.162 22.132-195.413-29.808-427.134-19.482-657.757 29.462C785.458 71.69 615 131.662 469.673 207.02c-12.973 6.727-28.951 1.68-35.689-11.272-6.737-12.952-1.682-28.906 11.29-35.633C594.92 82.52 769.883 20.96 956.768-18.7c236.623-50.217 474.73-60.828 676.758-30.01z"/>
    </g>
</svg>
